<svg xmlns="http://www.w3.org/2000/svg" width="640" height="360" viewBox="0 0 640 360" role="img" aria-label="Paper summaries">
  <defs>
    <linearGradient id="g" x1="0" y1="0" x2="1" y2="1">
      <stop offset="0" stop-color="#7c3aed"/>
      <stop offset="1" stop-color="#60a5fa"/>
    </linearGradient>
  </defs>
  <rect width="640" height="360" rx="28" fill="#0b1020"/>

  <rect x="78" y="70" width="210" height="250" rx="16" fill="#111b35" stroke="rgba(165,180,252,0.35)"/>
  <rect x="102" y="100" width="160" height="14" rx="7" fill="rgba(165,180,252,0.55)"/>
  <rect x="102" y="132" width="180" height="12" rx="6" fill="rgba(165,180,252,0.30)"/>
  <rect x="102" y="158" width="168" height="12" rx="6" fill="rgba(165,180,252,0.30)"/>
  <rect x="102" y="184" width="150" height="12" rx="6" fill="rgba(165,180,252,0.30)"/>
  <rect x="102" y="210" width="180" height="12" rx="6" fill="rgba(165,180,252,0.30)"/>
  <rect x="102" y="236" width="136" height="12" rx="6" fill="rgba(165,180,252,0.30)"/>

  <rect x="316" y="96" width="246" height="40" rx="12" fill="url(#g)" opacity="0.95"/>
  <text x="338" y="123" font-family="ui-sans-serif,system-ui,-apple-system,Segoe UI,Roboto,Helvetica,Arial" font-size="16" font-weight="700" fill="#0b1020">Paper → Product</text>

  <rect x="316" y="154" width="280" height="16" rx="8" fill="rgba(165,180,252,0.35)"/>
  <rect x="316" y="184" width="240" height="16" rx="8" fill="rgba(165,180,252,0.28)"/>
  <rect x="316" y="214" width="260" height="16" rx="8" fill="rgba(165,180,252,0.22)"/>

  <text x="52" y="330" font-family="ui-sans-serif,system-ui,-apple-system,Segoe UI,Roboto,Helvetica,Arial" font-size="22" font-weight="700" fill="#eef2ff">Paper summaries</text>
  <text x="236" y="330" font-family="ui-sans-serif,system-ui,-apple-system,Segoe UI,Roboto,Helvetica,Arial" font-size="14" font-weight="500" fill="rgba(165,180,252,0.9)">Briefs with implementation notes</text>
</svg>
